<svg xmlns="http://www.w3.org/2000/svg" width="86" height="86" viewBox="0 0 86 86">
  <g id="Group_285" data-name="Group 285" transform="translate(-269 -2111)">
    <g id="Group_284" data-name="Group 284" transform="translate(-126 -1274.683)">
      <g id="Path_36548" data-name="Path 36548" transform="translate(395 3385.683)" fill="none">
        <path d="M43,0A43,43,0,1,1,0,43,43,43,0,0,1,43,0Z" stroke="none"/>
        <path d="M 43 3 C 37.59872055053711 3 32.36058807373047 4.057174682617188 27.43112182617188 6.142173767089844 C 22.66830825805664 8.156669616699219 18.39022827148438 11.04122924804688 14.71573638916016 14.71573638916016 C 11.04122924804688 18.39022827148438 8.156669616699219 22.66830825805664 6.142173767089844 27.43112182617188 C 4.057174682617188 32.36058807373047 3 37.59872055053711 3 43 C 3 48.40127944946289 4.057174682617188 53.63941192626953 6.142173767089844 58.56887817382812 C 8.156669616699219 63.33169555664062 11.04122924804688 67.60977172851562 14.71573638916016 71.28426361083984 C 18.39022827148438 74.95877075195312 22.66830825805664 77.84333038330078 27.43112182617188 79.85782623291016 C 32.36058807373047 81.94282531738281 37.59872055053711 83 43 83 C 48.40127944946289 83 53.63941192626953 81.94282531738281 58.56887817382812 79.85782623291016 C 63.33169555664062 77.84333038330078 67.60977172851562 74.95877075195312 71.28426361083984 71.28426361083984 C 74.95877075195312 67.60977172851562 77.84333038330078 63.33169555664062 79.85782623291016 58.56887817382812 C 81.94282531738281 53.63941192626953 83 48.40127944946289 83 43 C 83 37.59872055053711 81.94282531738281 32.36058807373047 79.85782623291016 27.43112182617188 C 77.84333038330078 22.66830825805664 74.95877075195312 18.39022827148438 71.28426361083984 14.71573638916016 C 67.60977172851562 11.04122924804688 63.33169555664062 8.156669616699219 58.56887817382812 6.142173767089844 C 53.63941192626953 4.057174682617188 48.40127944946289 3 43 3 M 43 0 C 66.74823760986328 0 86 19.25176239013672 86 43 C 86 66.74823760986328 66.74823760986328 86 43 86 C 19.25176239013672 86 0 66.74823760986328 0 43 C 0 19.25176239013672 19.25176239013672 0 43 0 Z" stroke="none" fill="#03bbd7"/>
      </g>
      <path id="Path_649" data-name="Path 649" d="M-2338.412,12074.255l18.291,18.291,31.467-31.468" transform="translate(2754.557 -8649.77)" fill="none" stroke="#03bbd7" stroke-linejoin="round" stroke-width="3"/>
    </g>
  </g>
</svg>
